<svg width="16" height="16" viewBox="0 0 16 16" fill="none" xmlns="http://www.w3.org/2000/svg">
<path d="M14.6668 14.1666H13.8335V7.3333C13.8335 5.71996 12.9468 4.8333 11.3335 4.8333H8.50016V4.0133C8.88683 4.10663 9.2735 4.15996 9.66683 4.15996C10.2935 4.15996 10.9202 4.03996 11.5202 3.79996C11.7068 3.72663 11.8335 3.53996 11.8335 3.3333V1.3333C11.8335 1.16663 11.7535 1.0133 11.6135 0.919963C11.4735 0.82663 11.3002 0.80663 11.1468 0.86663C10.1935 1.24663 9.14016 1.24663 8.18683 0.86663C8.0335 0.80663 7.86016 0.82663 7.72016 0.919963C7.58016 1.0133 7.50016 1.16663 7.50016 1.3333V3.3333V4.8333H4.66683C3.0535 4.8333 2.16683 5.71996 2.16683 7.3333V14.1666H1.3335C1.06016 14.1666 0.833496 14.3933 0.833496 14.6666C0.833496 14.94 1.06016 15.1666 1.3335 15.1666H2.66683H13.3335H14.6668C14.9402 15.1666 15.1668 14.94 15.1668 14.6666C15.1668 14.3933 14.9402 14.1666 14.6668 14.1666ZM4.82683 14.1666H3.16683V8.49996H4.82683V14.1666ZM7.4935 14.1666H5.82683V8.49996H7.4935V14.1666ZM10.1602 14.1666H8.4935V8.49996H10.1602V14.1666ZM12.8335 14.1666H11.1602V8.49996H12.8335V14.1666Z" fill="white"/>
</svg>
