<svg width="12" height="12" viewBox="0 0 12 12" fill="none" xmlns="http://www.w3.org/2000/svg">
<path d="M6.26517 10.307L10.0636 6.5086C10.9969 5.5753 11.1345 4.03988 10.2513 3.05906C10.0301 2.81266 9.76098 2.61393 9.46041 2.47498C9.15983 2.33603 8.8341 2.25978 8.50308 2.25088C8.17207 2.24198 7.84271 2.30061 7.5351 2.42321C7.22749 2.5458 6.94808 2.72979 6.71393 2.96393L6 3.67785L5.3836 3.06145C4.4503 2.12815 2.91488 1.99046 1.93406 2.87368C1.68766 3.09491 1.48893 3.36402 1.34998 3.66459C1.21103 3.96517 1.13478 4.2909 1.12588 4.62192C1.11698 4.95294 1.17561 5.2823 1.29821 5.58991C1.4208 5.89752 1.60479 6.17692 1.83893 6.41107L5.73484 10.307C5.80516 10.3773 5.90055 10.4168 6 10.4168C6.09946 10.4168 6.19484 10.3773 6.26517 10.307Z" fill="white" stroke="white" stroke-width="1.5" stroke-linecap="round" stroke-linejoin="round"/>
</svg>
