<svg width="20" height="20" viewBox="0 0 20 20" fill="none" xmlns="http://www.w3.org/2000/svg">
<path d="M15.6667 8.2583C14.7251 8.2583 13.8834 8.71663 13.3584 9.41663C12.8334 8.71663 11.9917 8.2583 11.0501 8.2583C9.45841 8.2583 8.16675 9.5583 8.16675 11.1583C8.16675 11.775 8.26675 12.35 8.43341 12.875C9.25008 15.4666 11.7834 17.025 13.0334 17.45C13.2084 17.5083 13.5001 17.5083 13.6751 17.45C14.9251 17.025 17.4584 15.475 18.2751 12.875C18.4501 12.3416 18.5417 11.775 18.5417 11.1583C18.5501 9.5583 17.2584 8.2583 15.6667 8.2583Z" fill="url(#paint0_linear_139_2116)"/>
<path d="M17.2917 6.95004C17.2917 7.14171 17.1001 7.26671 16.9167 7.21671C15.7917 6.92504 14.5584 7.16671 13.6251 7.83337C13.4417 7.96671 13.1917 7.96671 13.0167 7.83337C12.3584 7.35004 11.5584 7.08337 10.7167 7.08337C8.56675 7.08337 6.81675 8.84171 6.81675 11.0084C6.81675 13.3584 7.94175 15.1167 9.07508 16.2917C9.13341 16.35 9.08342 16.45 9.00841 16.4167C6.73342 15.6417 1.66675 12.425 1.66675 6.95004C1.66675 4.53337 3.60841 2.58337 6.00841 2.58337C7.43341 2.58337 8.69175 3.26671 9.48341 4.32504C10.2834 3.26671 11.5417 2.58337 12.9584 2.58337C15.3501 2.58337 17.2917 4.53337 17.2917 6.95004Z" fill="url(#paint1_linear_139_2116)"/>
<defs>
<linearGradient id="paint0_linear_139_2116" x1="7.89372" y1="14.1354" x2="20.7938" y2="13.175" gradientUnits="userSpaceOnUse">
<stop stop-color="#96BDFF"/>
<stop offset="1" stop-color="#3259FF"/>
</linearGradient>
<linearGradient id="paint1_linear_139_2116" x1="1.25556" y1="11.3906" x2="20.6822" y2="9.9372" gradientUnits="userSpaceOnUse">
<stop stop-color="#96BDFF"/>
<stop offset="1" stop-color="#3259FF"/>
</linearGradient>
</defs>
</svg>
