<svg width="31" height="33" viewBox="0 0 31 33" fill="none" xmlns="http://www.w3.org/2000/svg">
<path d="M5 9.99999C5 4.47714 9.47715 0 15 0H21C26.5228 0 31 4.47715 31 10V17.1404C31 22.6632 26.5228 27.1404 21 27.1404H9C6.79086 27.1404 5 25.3495 5 23.1404V9.99999Z" fill="url(#paint0_linear_139_4482)"/>
<ellipse cx="3" cy="29.5701" rx="3" ry="3.13158" fill="#1A1A1A"/>
<path d="M24.6668 20.1666H23.8335V13.3333C23.8335 11.72 22.9468 10.8333 21.3335 10.8333H18.5002V10.0133C18.8868 10.1066 19.2735 10.16 19.6668 10.16C20.2935 10.16 20.9202 10.04 21.5202 9.79996C21.7068 9.72663 21.8335 9.53996 21.8335 9.3333V7.3333C21.8335 7.16663 21.7535 7.0133 21.6135 6.91996C21.4735 6.82663 21.3002 6.80663 21.1468 6.86663C20.1935 7.24663 19.1402 7.24663 18.1868 6.86663C18.0335 6.80663 17.8602 6.82663 17.7202 6.91996C17.5802 7.0133 17.5002 7.16663 17.5002 7.3333V9.3333V10.8333H14.6668C13.0535 10.8333 12.1668 11.72 12.1668 13.3333V20.1666H11.3335C11.0602 20.1666 10.8335 20.3933 10.8335 20.6666C10.8335 20.94 11.0602 21.1666 11.3335 21.1666H12.6668H23.3335H24.6668C24.9402 21.1666 25.1668 20.94 25.1668 20.6666C25.1668 20.3933 24.9402 20.1666 24.6668 20.1666ZM14.8268 20.1666H13.1668V14.5H14.8268V20.1666ZM17.4935 20.1666H15.8268V14.5H17.4935V20.1666ZM20.1602 20.1666H18.4935V14.5H20.1602V20.1666ZM22.8335 20.1666H21.1602V14.5H22.8335V20.1666Z" fill="white"/>
<defs>
<linearGradient id="paint0_linear_139_4482" x1="4.31579" y1="17.2711" x2="36.6922" y2="15.2157" gradientUnits="userSpaceOnUse">
<stop stop-color="#96BDFF"/>
<stop offset="1" stop-color="#3259FF"/>
</linearGradient>
</defs>
</svg>
