<svg width="39" height="42" viewBox="0 0 39 42" fill="none" xmlns="http://www.w3.org/2000/svg">
<path d="M5 10C5 4.47716 9.47715 0 15 0H29C34.5228 0 39 4.47715 39 10V25.4912C39 31.0141 34.5228 35.4912 29 35.4912H9C6.79086 35.4912 5 33.7004 5 31.4912V10Z" fill="#1A1A1A"/>
<ellipse cx="3" cy="37.9299" rx="3" ry="3.13158" fill="#1A1A1A"/>
<path d="M31.1668 26.4792H30.021V17.0833C30.021 14.865 28.8018 13.6458 26.5835 13.6458H22.6877V12.5183C23.2193 12.6467 23.751 12.72 24.2918 12.72C25.1535 12.72 26.0152 12.555 26.8402 12.225C27.0968 12.1242 27.271 11.8675 27.271 11.5833V8.83334C27.271 8.60418 27.161 8.39334 26.9685 8.26501C26.776 8.13668 26.5377 8.10918 26.3268 8.19168C25.016 8.71418 23.5677 8.71418 22.2568 8.19168C22.046 8.10918 21.8077 8.13668 21.6152 8.26501C21.4227 8.39334 21.3127 8.60418 21.3127 8.83334V11.5833V13.6458H17.4168C15.1985 13.6458 13.9793 14.865 13.9793 17.0833V26.4792H12.8335C12.4577 26.4792 12.146 26.7908 12.146 27.1667C12.146 27.5425 12.4577 27.8542 12.8335 27.8542H14.6668H29.3335H31.1668C31.5427 27.8542 31.8543 27.5425 31.8543 27.1667C31.8543 26.7908 31.5427 26.4792 31.1668 26.4792ZM17.6368 26.4792H15.3543V18.6875H17.6368V26.4792ZM21.3035 26.4792H19.0118V18.6875H21.3035V26.4792ZM24.9702 26.4792H22.6785V18.6875H24.9702V26.4792ZM28.646 26.4792H26.3452V18.6875H28.646V26.4792Z" fill="white"/>
</svg>
