<svg width="16" height="16" viewBox="0 0 16 16" fill="none" xmlns="http://www.w3.org/2000/svg">
<path d="M5.08686 2.37998C5.20644 2.31475 5.33352 2.41511 5.33352 2.55133V11.5733C5.33352 11.7311 5.22545 11.8644 5.08686 11.94L3.52019 12.8333C2.42686 13.46 1.52686 12.94 1.52686 11.6733V5.18665C1.52686 4.76665 1.82686 4.24665 2.20019 4.03332L5.08686 2.37998Z" fill="#1A1A1A"/>
<path d="M9.7219 4.02227C9.89223 4.10663 10 4.28026 10 4.47034V12.8704C10 13.2388 9.61495 13.4807 9.28298 13.3208L6.78298 12.1163C6.60998 12.033 6.5 11.8579 6.5 11.6659V3.23224C6.5 2.86138 6.88956 2.61959 7.2219 2.78418L9.7219 4.02227Z" fill="#1A1A1A"/>
<path d="M14.6665 4.32667V10.8133C14.6665 11.2333 14.3665 11.7533 13.9932 11.9667L11.9151 13.1576C11.5818 13.3487 11.1665 13.108 11.1665 12.7238V4.31699C11.1665 4.13748 11.2627 3.97174 11.4186 3.88275L12.6732 3.16667C13.7665 2.54 14.6665 3.06 14.6665 4.32667Z" fill="#1A1A1A"/>
</svg>
