<svg width="16" height="16" viewBox="0 0 16 16" fill="none" xmlns="http://www.w3.org/2000/svg">
<path d="M13.2668 9H2.7335C1.7335 9 1.3335 9.42667 1.3335 10.4867V13.18C1.3335 14.24 1.7335 14.6667 2.7335 14.6667H13.2668C14.2668 14.6667 14.6668 14.24 14.6668 13.18V10.4867C14.6668 9.42667 14.2668 9 13.2668 9Z" fill="white"/>
<path d="M13.2668 1.33333H2.7335C1.7335 1.33333 1.3335 1.75999 1.3335 2.81999V5.51333C1.3335 6.57333 1.7335 6.99999 2.7335 6.99999H13.2668C14.2668 6.99999 14.6668 6.57333 14.6668 5.51333V2.81999C14.6668 1.75999 14.2668 1.33333 13.2668 1.33333Z" fill="white"/>
</svg>
