<svg width="30" height="30" viewBox="0 0 30 30" fill="none" xmlns="http://www.w3.org/2000/svg">
<mask id="mask0_139_3411" style="mask-type:alpha" maskUnits="userSpaceOnUse" x="0" y="0" width="30" height="30">
<rect width="30" height="30" fill="#D9D9D9"/>
</mask>
<g mask="url(#mask0_139_3411)">
<path d="M26.9976 14.9998C26.9978 14.2791 26.9336 13.5599 26.8056 12.8506L24.222 14.7538C24.222 14.8354 24.222 14.9182 24.222 14.9938C24.2248 17.0588 23.5359 19.0652 22.2651 20.6928C20.9943 22.3204 19.215 23.4755 17.211 23.9736C15.2071 24.4717 13.094 24.2843 11.209 23.4411C9.32407 22.5979 7.77588 21.1476 6.81153 19.3217C5.84718 17.4957 5.52225 15.3994 5.8886 13.3672C6.25495 11.335 7.29146 9.48409 8.83272 8.10985C10.374 6.73561 12.3311 5.91724 14.3919 5.78536C16.4526 5.65348 18.4981 6.21568 20.202 7.38224L22.536 5.66144C20.4181 3.95234 17.7821 3.01392 15.0607 3.00015C12.3392 2.98639 9.69393 3.8981 7.55885 5.58569C5.42377 7.27327 3.92575 9.63649 3.31059 12.2875C2.69543 14.9386 2.99968 17.72 4.17341 20.1754C5.34714 22.6308 7.32064 24.6142 9.77006 25.8003C12.2195 26.9864 14.9993 27.3047 17.6535 26.7029C20.3076 26.1012 22.6783 24.6151 24.3766 22.4885C26.075 20.362 27 17.7213 27 14.9998H26.9976Z" fill="#219F38" stroke="#219F38" stroke-miterlimit="10" stroke-linecap="round" stroke-linejoin="round"/>
<path d="M24.4932 7.66302C25.0637 8.39996 25.5469 9.20049 25.9332 10.0486L14.9976 18.1078L10.4292 15.2434V11.7982L14.9976 14.6614L24.4932 7.66302Z" fill="#219F38" stroke="#219F38" stroke-miterlimit="10" stroke-linecap="round" stroke-linejoin="round"/>
</g>
</svg>
