<svg width="16" height="16" viewBox="0 0 16 16" fill="none" xmlns="http://www.w3.org/2000/svg">
<mask id="mask0_310_358" style="mask-type:alpha" maskUnits="userSpaceOnUse" x="0" y="0" width="16" height="16">
<rect width="16" height="16" fill="#D9D9D9"/>
</mask>
<g mask="url(#mask0_310_358)">
<path d="M9.41177 2.58025C9.16789 2.33995 8.77234 2.33995 8.52846 2.58025C8.41134 2.69563 8.34547 2.85227 8.34547 3.01526V5.16925C4.61222 5.20733 1.60449 8.19788 1.6001 11.8767V12.9844C1.6001 13.2556 1.78045 13.4947 2.04395 13.5735C2.10251 13.5911 2.16341 13.6 2.22489 13.6C2.43364 13.6 2.62864 13.497 2.74458 13.326C5.13044 9.80003 7.41852 9.5482 8.34576 9.62147V11.877C8.34576 12.2168 8.62537 12.4923 8.97026 12.4923C9.13597 12.4923 9.29466 12.4274 9.41177 12.312L13.9089 7.88114C14.1528 7.64085 14.1528 7.25141 13.9089 7.01112L9.41177 2.58025Z" fill="#1A1A1A"/>
</g>
</svg>
