<svg width="26" height="26" viewBox="0 0 26 26" fill="none" xmlns="http://www.w3.org/2000/svg">
<path d="M14.0941 3.16331L20.4858 6.00164C22.3274 6.81414 22.3274 8.15747 20.4858 8.96997L14.0941 11.8083C13.3683 12.1333 12.1766 12.1333 11.4508 11.8083L5.05911 8.96997C3.21744 8.15747 3.21744 6.81414 5.05911 6.00164L11.4508 3.16331C12.1766 2.83831 13.3683 2.83831 14.0941 3.16331Z" stroke="#B5B9C3" stroke-width="1.5" stroke-linecap="round" stroke-linejoin="round"/>
<path d="M3.25 11.9167C3.25 12.8267 3.9325 13.8775 4.76667 14.2459L12.1225 17.5175C12.6858 17.7667 13.325 17.7667 13.8775 17.5175L21.2333 14.2459C22.0675 13.8775 22.75 12.8267 22.75 11.9167" stroke="#B5B9C3" stroke-width="1.5" stroke-linecap="round" stroke-linejoin="round"/>
<path d="M3.25 17.3333C3.25 18.3408 3.84583 19.2508 4.76667 19.6625L12.1225 22.9341C12.6858 23.1833 13.325 23.1833 13.8775 22.9341L21.2333 19.6625C22.1542 19.2508 22.75 18.3408 22.75 17.3333" stroke="#B5B9C3" stroke-width="1.5" stroke-linecap="round" stroke-linejoin="round"/>
</svg>
