<svg width="26" height="26" viewBox="0 0 26 26" fill="none" xmlns="http://www.w3.org/2000/svg">
<path d="M9.74996 23.8334H16.25C21.6666 23.8334 23.8333 21.6667 23.8333 16.25V9.75002C23.8333 4.33335 21.6666 2.16669 16.25 2.16669H9.74996C4.33329 2.16669 2.16663 4.33335 2.16663 9.75002V16.25C2.16663 21.6667 4.33329 23.8334 9.74996 23.8334Z" stroke="#B5B9C3" stroke-width="1.5" stroke-linecap="round" stroke-linejoin="round"/>
<path d="M16.7917 20.0416C17.9833 20.0416 18.9583 19.0666 18.9583 17.875V8.12498C18.9583 6.93331 17.9833 5.95831 16.7917 5.95831C15.6 5.95831 14.625 6.93331 14.625 8.12498V17.875C14.625 19.0666 15.5892 20.0416 16.7917 20.0416Z" stroke="#B5B9C3" stroke-width="1.5" stroke-linecap="round" stroke-linejoin="round"/>
<path d="M9.20829 20.0417C10.4 20.0417 11.375 19.0667 11.375 17.875V14.0834C11.375 12.8917 10.4 11.9167 9.20829 11.9167C8.01663 11.9167 7.04163 12.8917 7.04163 14.0834V17.875C7.04163 19.0667 8.00579 20.0417 9.20829 20.0417Z" stroke="#B5B9C3" stroke-width="1.5" stroke-linecap="round" stroke-linejoin="round"/>
</svg>
