<svg width="32" height="32" viewBox="0 0 32 32" fill="none" xmlns="http://www.w3.org/2000/svg">
<path d="M6.19702 17.8286V21H4V11H9.70946C10.2039 11 10.6657 11.081 11.0948 11.2429C11.524 11.3952 11.8972 11.619 12.2143 11.9143C12.5315 12.2095 12.7788 12.5667 12.956 12.9857C13.1426 13.4048 13.2359 13.881 13.2359 14.4143C13.2359 14.9381 13.1426 15.4143 12.956 15.8429C12.7788 16.2619 12.5315 16.619 12.2143 16.9143C11.8972 17.2095 11.524 17.4381 11.0948 17.6C10.6657 17.7524 10.2039 17.8286 9.70946 17.8286H6.19702ZM9.70946 15.8143C10.1199 15.8143 10.4418 15.6857 10.675 15.4286C10.9176 15.1619 11.0389 14.8238 11.0389 14.4143C11.0389 13.9952 10.9176 13.6571 10.675 13.4C10.4418 13.1333 10.1199 13 9.70946 13H6.19702V15.8143H9.70946Z" fill="url(#paint0_linear_272_1094)"/>
<path d="M28 21H15V11H16.9531V18.9429H20.5234V11H22.4766V18.9429H26.0469V11H28V21Z" fill="url(#paint1_linear_272_1094)"/>
<defs>
<linearGradient id="paint0_linear_272_1094" x1="3.75695" y1="17.3636" x2="15.2612" y2="16.6595" gradientUnits="userSpaceOnUse">
<stop stop-color="#96BDFF"/>
<stop offset="1" stop-color="#3259FF"/>
</linearGradient>
<linearGradient id="paint1_linear_272_1094" x1="14.6579" y1="17.3636" x2="30.7916" y2="15.9737" gradientUnits="userSpaceOnUse">
<stop stop-color="#96BDFF"/>
<stop offset="1" stop-color="#3259FF"/>
</linearGradient>
</defs>
</svg>
