<svg width="20" height="20" viewBox="0 0 20 20" fill="none" xmlns="http://www.w3.org/2000/svg">
<path d="M18.3333 15.8333V18.3333H1.66663V15.8333C1.66663 15.375 2.04163 15 2.49996 15H17.5C17.9583 15 18.3333 15.375 18.3333 15.8333Z" fill="url(#paint0_linear_78_5381)" stroke="url(#paint1_linear_78_5381)" stroke-width="1.5" stroke-miterlimit="10" stroke-linecap="round" stroke-linejoin="round"/>
<path d="M5.83329 9.16669H4.16663V15H5.83329V9.16669Z" fill="url(#paint2_linear_78_5381)"/>
<path d="M9.16667 9.16669H7.5V15H9.16667V9.16669Z" fill="url(#paint3_linear_78_5381)"/>
<path d="M12.5 9.16669H10.8334V15H12.5V9.16669Z" fill="url(#paint4_linear_78_5381)"/>
<path d="M15.8333 9.16669H14.1666V15H15.8333V9.16669Z" fill="url(#paint5_linear_78_5381)"/>
<path d="M19.1667 18.9583H0.833374C0.491707 18.9583 0.208374 18.675 0.208374 18.3333C0.208374 17.9916 0.491707 17.7083 0.833374 17.7083H19.1667C19.5084 17.7083 19.7917 17.9916 19.7917 18.3333C19.7917 18.675 19.5084 18.9583 19.1667 18.9583Z" fill="url(#paint6_linear_78_5381)"/>
<path d="M17.8083 4.79164L10.3083 1.79164C10.1416 1.72497 9.85829 1.72497 9.69163 1.79164L2.19163 4.79164C1.89996 4.9083 1.66663 5.24997 1.66663 5.56664V8.3333C1.66663 8.79164 2.04163 9.16664 2.49996 9.16664H17.5C17.9583 9.16664 18.3333 8.79164 18.3333 8.3333V5.56664C18.3333 5.24997 18.1 4.9083 17.8083 4.79164ZM9.99996 7.0833C9.30829 7.0833 8.74996 6.52497 8.74996 5.8333C8.74996 5.14164 9.30829 4.5833 9.99996 4.5833C10.6916 4.5833 11.25 5.14164 11.25 5.8333C11.25 6.52497 10.6916 7.0833 9.99996 7.0833Z" fill="url(#paint7_linear_78_5381)"/>
<defs>
<linearGradient id="paint0_linear_78_5381" x1="1.22803" y1="17.1212" x2="20.0043" y2="10.8997" gradientUnits="userSpaceOnUse">
<stop stop-color="#96BDFF"/>
<stop offset="1" stop-color="#3259FF"/>
</linearGradient>
<linearGradient id="paint1_linear_78_5381" x1="1.22803" y1="17.1212" x2="20.0043" y2="10.8997" gradientUnits="userSpaceOnUse">
<stop stop-color="#96BDFF"/>
<stop offset="1" stop-color="#3259FF"/>
</linearGradient>
<linearGradient id="paint2_linear_78_5381" x1="4.12277" y1="12.8788" x2="6.20579" y2="12.8394" gradientUnits="userSpaceOnUse">
<stop stop-color="#96BDFF"/>
<stop offset="1" stop-color="#3259FF"/>
</linearGradient>
<linearGradient id="paint3_linear_78_5381" x1="7.45614" y1="12.8788" x2="9.53917" y2="12.8394" gradientUnits="userSpaceOnUse">
<stop stop-color="#96BDFF"/>
<stop offset="1" stop-color="#3259FF"/>
</linearGradient>
<linearGradient id="paint4_linear_78_5381" x1="10.7895" y1="12.8788" x2="12.8725" y2="12.8394" gradientUnits="userSpaceOnUse">
<stop stop-color="#96BDFF"/>
<stop offset="1" stop-color="#3259FF"/>
</linearGradient>
<linearGradient id="paint5_linear_78_5381" x1="14.1228" y1="12.8788" x2="16.2058" y2="12.8394" gradientUnits="userSpaceOnUse">
<stop stop-color="#96BDFF"/>
<stop offset="1" stop-color="#3259FF"/>
</linearGradient>
<linearGradient id="paint6_linear_78_5381" x1="-0.306977" y1="18.5038" x2="11.4762" y2="6.2702" gradientUnits="userSpaceOnUse">
<stop stop-color="#96BDFF"/>
<stop offset="1" stop-color="#3259FF"/>
</linearGradient>
<linearGradient id="paint7_linear_78_5381" x1="1.22803" y1="6.46664" x2="21.6147" y2="3.43407" gradientUnits="userSpaceOnUse">
<stop stop-color="#96BDFF"/>
<stop offset="1" stop-color="#3259FF"/>
</linearGradient>
</defs>
</svg>
