<svg width="20" height="20" viewBox="0 0 20 20" fill="none" xmlns="http://www.w3.org/2000/svg">
<path d="M18.3333 6.29168C18.3333 6.84168 17.8833 7.29168 17.3333 7.29168H2.66663C2.11663 7.29168 1.66663 6.84168 1.66663 6.29168V6.28334C1.66663 4.37501 3.20829 2.83334 5.11663 2.83334H14.875C16.7833 2.83334 18.3333 4.38334 18.3333 6.29168Z" fill="url(#paint0_linear_78_5348)"/>
<path d="M1.66663 9.54166V13.7167C1.66663 15.625 3.20829 17.1667 5.11663 17.1667H14.875C16.7833 17.1667 18.3333 15.6167 18.3333 13.7083V9.54166C18.3333 8.99166 17.8833 8.54166 17.3333 8.54166H2.66663C2.11663 8.54166 1.66663 8.99166 1.66663 9.54166ZM6.66663 14.375H4.99996C4.65829 14.375 4.37496 14.0917 4.37496 13.75C4.37496 13.4083 4.65829 13.125 4.99996 13.125H6.66663C7.00829 13.125 7.29163 13.4083 7.29163 13.75C7.29163 14.0917 7.00829 14.375 6.66663 14.375ZM12.0833 14.375H8.74996C8.40829 14.375 8.12496 14.0917 8.12496 13.75C8.12496 13.4083 8.40829 13.125 8.74996 13.125H12.0833C12.425 13.125 12.7083 13.4083 12.7083 13.75C12.7083 14.0917 12.425 14.375 12.0833 14.375Z" fill="url(#paint1_linear_78_5348)"/>
<defs>
<linearGradient id="paint0_linear_78_5348" x1="1.22803" y1="5.67046" x2="20.8608" y2="0.806708" gradientUnits="userSpaceOnUse">
<stop stop-color="#96BDFF"/>
<stop offset="1" stop-color="#3259FF"/>
</linearGradient>
<linearGradient id="paint1_linear_78_5348" x1="1.22803" y1="14.0303" x2="21.7296" y2="11.4049" gradientUnits="userSpaceOnUse">
<stop stop-color="#96BDFF"/>
<stop offset="1" stop-color="#3259FF"/>
</linearGradient>
</defs>
</svg>
