<svg width="22" height="22" viewBox="0 0 22 22" fill="none" xmlns="http://www.w3.org/2000/svg">
<path d="M10.9725 1.83337C5.91245 1.83337 1.80579 5.94004 1.80579 11C1.80579 16.06 5.91245 20.1667 10.9725 20.1667C16.0325 20.1667 20.1391 16.06 20.1391 11C20.1391 5.94004 16.0416 1.83337 10.9725 1.83337ZM14.41 11.3209L11 15.1984L10.5966 15.6567C10.0375 16.2892 9.57912 16.1242 9.57912 15.2717V11.6417H8.02079C7.31495 11.6417 7.12245 11.2109 7.58995 10.6792L11 6.80171L11.4033 6.34337C11.9625 5.71087 12.4208 5.87587 12.4208 6.72837V10.3584H13.9791C14.685 10.3584 14.8775 10.7892 14.41 11.3209Z" fill="url(#paint0_linear_78_5482)"/>
<defs>
<linearGradient id="paint0_linear_78_5482" x1="1.32333" y1="13.5" x2="24.1446" y2="11.9877" gradientUnits="userSpaceOnUse">
<stop stop-color="#96BDFF"/>
<stop offset="1" stop-color="#3259FF"/>
</linearGradient>
</defs>
</svg>
