<svg width="60" height="60" viewBox="0 0 60 60" fill="none" xmlns="http://www.w3.org/2000/svg">
<path d="M21.7 31.8002H26.05V41.9252C26.05 43.4252 27.9 44.1252 28.9 43.0002L39.55 30.9002C40.475 29.8502 39.725 28.2002 38.325 28.2002H33.975V18.0752C33.975 16.5752 32.125 15.8752 31.125 17.0002L20.475 29.1002C19.55 30.1502 20.3 31.8002 21.7 31.8002Z" stroke="white" stroke-width="1.5" stroke-miterlimit="10" stroke-linecap="round" stroke-linejoin="round"/>
<path d="M29.925 55C43.7322 55 54.925 43.8071 54.925 30C54.925 16.1929 43.7322 5 29.925 5C16.1179 5 4.92505 16.1929 4.92505 30C4.92505 43.8071 16.1179 55 29.925 55Z" stroke="white" stroke-width="1.5" stroke-miterlimit="10" stroke-linecap="round" stroke-linejoin="round"/>
</svg>
