<svg width="22" height="22" viewBox="0 0 22 22" fill="none" xmlns="http://www.w3.org/2000/svg">
<path d="M11.4861 18.8961L18.4499 11.9324C20.1609 10.2214 20.4133 7.40645 18.7941 5.60827C18.3885 5.15655 17.8951 4.79221 17.3441 4.53747C16.793 4.28273 16.1959 4.14293 15.589 4.12662C14.9821 4.1103 14.3783 4.21779 13.8143 4.44255C13.2504 4.66731 12.7382 5.00461 12.3089 5.43387L11 6.74273L9.86993 5.61266C8.15889 3.90161 5.34395 3.64917 3.54577 5.2684C3.09405 5.674 2.72971 6.16737 2.47497 6.71842C2.22023 7.26948 2.08043 7.86666 2.06412 8.47352C2.0478 9.08039 2.15529 9.68422 2.38005 10.2482C2.60481 10.8121 2.94211 11.3244 3.37137 11.7536L10.5139 18.8961C10.6428 19.0251 10.8177 19.0975 11 19.0975C11.1823 19.0975 11.3572 19.0251 11.4861 18.8961Z" fill="url(#paint0_linear_78_5491)" stroke="url(#paint1_linear_78_5491)" stroke-width="1.5" stroke-linecap="round" stroke-linejoin="round"/>
<defs>
<linearGradient id="paint0_linear_78_5491" x1="1.5936" y1="13.653" x2="23.7335" y2="11.9069" gradientUnits="userSpaceOnUse">
<stop stop-color="#96BDFF"/>
<stop offset="1" stop-color="#3259FF"/>
</linearGradient>
<linearGradient id="paint1_linear_78_5491" x1="1.5936" y1="13.653" x2="23.7335" y2="11.9069" gradientUnits="userSpaceOnUse">
<stop stop-color="#96BDFF"/>
<stop offset="1" stop-color="#3259FF"/>
</linearGradient>
</defs>
</svg>
