<svg width="24" height="24" viewBox="0 0 24 24" fill="none" xmlns="http://www.w3.org/2000/svg">
<path d="M12.5303 20.614L20.1271 13.0172C21.9937 11.1506 22.2691 8.07976 20.5027 6.11811C20.0602 5.62533 19.522 5.22786 18.9208 4.94997C18.3197 4.67207 17.6682 4.51956 17.0062 4.50176C16.3441 4.48396 15.6854 4.60123 15.0702 4.84642C14.455 5.09161 13.8962 5.45957 13.4279 5.92786L12 7.35571L10.7672 6.1229C8.9006 4.2563 5.82976 3.98091 3.86811 5.74735C3.37533 6.18981 2.97786 6.72804 2.69997 7.32919C2.42207 7.93034 2.26956 8.58181 2.25176 9.24384C2.23396 9.90588 2.35123 10.5646 2.59642 11.1798C2.84161 11.795 3.20957 12.3538 3.67786 12.8221L11.4697 20.614C11.6103 20.7546 11.8011 20.8336 12 20.8336C12.1989 20.8336 12.3897 20.7546 12.5303 20.614V20.614Z" stroke="#B5B9C3" stroke-width="1.5" stroke-linecap="round" stroke-linejoin="round"/>
</svg>
