<svg width="66" height="66" viewBox="0 0 66 66" fill="none" xmlns="http://www.w3.org/2000/svg">
<path d="M54.615 22.2475C54.615 23.4025 54.5325 24.53 54.395 25.6025C53.13 25.0525 51.755 24.75 50.2975 24.75C46.9425 24.75 43.9725 26.3725 42.13 28.8475C40.26 26.3725 37.29 24.75 33.935 24.75C28.2975 24.75 23.7325 29.3425 23.7325 35.035C23.7325 42.405 27.6375 48.0425 31.9825 51.865C31.845 51.9475 31.7075 51.975 31.57 52.03C30.745 52.3325 29.37 52.3325 28.545 52.03C21.4225 49.5825 5.5 39.4625 5.5 22.2475C5.5 14.6575 11.605 8.52502 19.14 8.52502C23.6225 8.52502 27.5825 10.67 30.0575 13.9975C32.56 10.67 36.52 8.52502 40.975 8.52502C48.51 8.52502 54.615 14.6575 54.615 22.2475Z" stroke="url(#paint0_linear_78_6290)" stroke-width="1.5" stroke-linecap="round" stroke-linejoin="round"/>
<path d="M60.5 35.035C60.5 47.905 48.5926 55.495 43.2576 57.31C42.6251 57.53 41.6075 57.53 40.975 57.31C38.6925 56.54 35.2 54.6975 31.9825 51.865C27.6375 48.0425 23.7325 42.405 23.7325 35.035C23.7325 29.3425 28.2975 24.75 33.935 24.75C37.29 24.75 40.2601 26.3725 42.1301 28.8475C43.9726 26.3725 46.9426 24.75 50.2976 24.75C51.7551 24.75 53.13 25.0525 54.395 25.6025C57.9975 27.1975 60.5 30.8 60.5 35.035Z" stroke="url(#paint1_linear_78_6290)" stroke-width="1.5" stroke-linecap="round" stroke-linejoin="round"/>
<defs>
<linearGradient id="paint0_linear_78_6290" x1="4.2075" y1="36.3544" x2="65.2759" y2="31.8093" gradientUnits="userSpaceOnUse">
<stop stop-color="#96BDFF"/>
<stop offset="1" stop-color="#3259FF"/>
</linearGradient>
<linearGradient id="paint1_linear_78_6290" x1="22.765" y1="45.575" x2="68.4806" y2="42.1712" gradientUnits="userSpaceOnUse">
<stop stop-color="#96BDFF"/>
<stop offset="1" stop-color="#3259FF"/>
</linearGradient>
</defs>
</svg>
