<svg width="14" height="14" viewBox="0 0 14 14" fill="none" xmlns="http://www.w3.org/2000/svg">
<path d="M4.45094 2.0824C4.55558 2.02532 4.66677 2.11313 4.66677 2.23232V10.1265C4.66677 10.2647 4.57221 10.3813 4.45094 10.4474L3.0801 11.2291C2.12344 11.7774 1.33594 11.3224 1.33594 10.2141V4.53823C1.33594 4.17073 1.59844 3.71573 1.9251 3.52907L4.45094 2.0824Z" fill="#D9D9D9"/>
<path d="M8.4719 3.50223C8.64223 3.58659 8.75 3.76022 8.75 3.95029V11.162C8.75 11.5305 8.36495 11.7724 8.03298 11.6125L5.97048 10.6188C5.79748 10.5354 5.6875 10.3604 5.6875 10.1683V2.92887C5.6875 2.55801 6.07706 2.31622 6.4094 2.4808L8.4719 3.50223Z" fill="#D9D9D9"/>
<path d="M12.8335 3.78579V9.46162C12.8335 9.82912 12.571 10.2841 12.2443 10.4708L10.5196 11.4592C10.1863 11.6503 9.771 11.4096 9.771 11.0254V3.81361C9.771 3.6341 9.86723 3.46836 10.0231 3.37937L11.0893 2.77079C12.046 2.22246 12.8335 2.67746 12.8335 3.78579Z" fill="#D9D9D9"/>
</svg>
