<svg width="16" height="16" viewBox="0 0 16 16" fill="none" xmlns="http://www.w3.org/2000/svg">
<path d="M12.6666 5.3335C13.7712 5.3335 14.6666 4.43807 14.6666 3.3335C14.6666 2.22893 13.7712 1.3335 12.6666 1.3335C11.5621 1.3335 10.6666 2.22893 10.6666 3.3335C10.6666 4.43807 11.5621 5.3335 12.6666 5.3335Z" fill="url(#paint0_linear_78_5656)"/>
<path d="M13.2 6.28C13.1867 6.28 13.1734 6.28667 13.16 6.28667C13.0934 6.3 13.0267 6.30667 12.9534 6.32C12.6734 6.34667 12.3734 6.33333 12.0667 6.27333C11.9867 6.25333 11.92 6.24 11.8467 6.21333C11.6267 6.16 11.42 6.07333 11.2267 5.96C11.1467 5.92 11.0667 5.86667 10.9934 5.82C10.6734 5.6 10.4 5.32667 10.18 5.00667C10.1334 4.93333 10.08 4.85333 10.04 4.77333C9.92671 4.58 9.84004 4.37333 9.78671 4.15333C9.76004 4.08 9.74671 4.01333 9.72671 3.93333C9.66671 3.62667 9.65337 3.32667 9.68004 3.04667C9.69337 2.97333 9.70004 2.90667 9.71337 2.84C9.71337 2.82667 9.72004 2.81333 9.72004 2.8C9.80004 2.38667 9.49337 2 9.06671 2H5.01337C4.92004 2 4.82671 2.00667 4.74004 2.01333C4.66004 2.02 4.58671 2.02667 4.50671 2.04C4.42671 2.04667 4.34671 2.06 4.27337 2.07333C2.66671 2.30667 1.64004 3.32667 1.40671 4.94C1.39337 5.01333 1.38004 5.09333 1.37337 5.17333C1.36004 5.25333 1.35337 5.32667 1.34671 5.40667C1.34004 5.49333 1.33337 5.58667 1.33337 5.68V10.9867C1.33337 11.08 1.34004 11.1733 1.34671 11.26C1.35337 11.34 1.36004 11.4133 1.37337 11.4933C1.38004 11.5733 1.39337 11.6533 1.40671 11.7267C1.64004 13.34 2.66671 14.36 4.27337 14.5933C4.34671 14.6067 4.42671 14.62 4.50671 14.6267C4.58671 14.64 4.66004 14.6467 4.74004 14.6533C4.82671 14.66 4.92004 14.6667 5.01337 14.6667H10.32C10.4134 14.6667 10.5067 14.66 10.5934 14.6533C10.6734 14.6467 10.7467 14.64 10.8267 14.6267C10.9067 14.62 10.9867 14.6067 11.06 14.5933C12.6667 14.36 13.6934 13.34 13.9267 11.7267C13.94 11.6533 13.9534 11.5733 13.96 11.4933C13.9734 11.4133 13.98 11.34 13.9867 11.26C13.9934 11.1733 14 11.08 14 10.9867V6.93333C14 6.50667 13.6134 6.2 13.2 6.28ZM4.50004 8.33333H7.83337C8.10671 8.33333 8.33337 8.56 8.33337 8.83333C8.33337 9.10667 8.10671 9.33333 7.83337 9.33333H4.50004C4.22671 9.33333 4.00004 9.10667 4.00004 8.83333C4.00004 8.56 4.22671 8.33333 4.50004 8.33333ZM10.5 12H4.50004C4.22671 12 4.00004 11.7733 4.00004 11.5C4.00004 11.2267 4.22671 11 4.50004 11H10.5C10.7734 11 11 11.2267 11 11.5C11 11.7733 10.7734 12 10.5 12Z" fill="url(#paint1_linear_78_5656)"/>
<defs>
<linearGradient id="paint0_linear_78_5656" x1="10.5614" y1="3.87895" x2="15.5406" y2="3.54898" gradientUnits="userSpaceOnUse">
<stop stop-color="#96BDFF"/>
<stop offset="1" stop-color="#3259FF"/>
</linearGradient>
<linearGradient id="paint1_linear_78_5656" x1="1.00004" y1="10.0606" x2="16.7675" y2="9.01571" gradientUnits="userSpaceOnUse">
<stop stop-color="#96BDFF"/>
<stop offset="1" stop-color="#3259FF"/>
</linearGradient>
</defs>
</svg>
