<svg width="20" height="20" viewBox="0 0 20 20" fill="none" xmlns="http://www.w3.org/2000/svg">
<mask id="mask0_78_5373" style="mask-type:alpha" maskUnits="userSpaceOnUse" x="0" y="0" width="20" height="20">
<rect width="20" height="20" fill="#D9D9D9"/>
</mask>
<g mask="url(#mask0_78_5373)">
<path d="M17.9969 10C17.9971 9.51955 17.9543 9.04004 17.8689 8.56721L16.1465 9.83601C16.1465 9.89041 16.1465 9.94561 16.1465 9.99601C16.1484 11.3726 15.6891 12.7102 14.8419 13.7953C13.9948 14.8804 12.8085 15.6504 11.4726 15.9825C10.1366 16.3146 8.72786 16.1896 7.47122 15.6275C6.21458 15.0654 5.18246 14.0985 4.53955 12.8812C3.89665 11.6639 3.68003 10.2664 3.92427 8.91158C4.1685 7.55679 4.85951 6.32285 5.88701 5.40669C6.91452 4.49053 8.2193 3.94495 9.59312 3.85703C10.9669 3.76911 12.3306 4.14391 13.4665 4.92162L15.0225 3.77442C13.6106 2.63502 11.8533 2.0094 10.039 2.00022C8.2247 1.99105 6.46116 2.59886 5.03777 3.72392C3.61439 4.84897 2.6157 6.42445 2.20559 8.19182C1.79549 9.95919 1.99832 11.8135 2.78081 13.4504C3.5633 15.0873 4.87896 16.4096 6.51191 17.2004C8.14486 17.9911 9.99809 18.2033 11.7675 17.8021C13.5369 17.4009 15.1174 16.4102 16.2496 14.9925C17.3819 13.5748 17.9986 11.8143 17.9985 10H17.9969Z" fill="url(#paint0_linear_78_5373)"/>
<path d="M16.3281 5.10892C16.7085 5.60021 17.0306 6.1339 17.2881 6.69932L9.99775 12.0721L6.95215 10.1625V7.86572L9.99775 9.77451L16.3281 5.10892Z" fill="url(#paint1_linear_78_5373)"/>
</g>
<defs>
<linearGradient id="paint0_linear_78_5373" x1="2.49862" y1="3.33333" x2="12.4986" y2="18.75" gradientUnits="userSpaceOnUse">
<stop stop-color="#F5ED01"/>
<stop offset="0.360577" stop-color="#1ACE30"/>
<stop offset="0.692308" stop-color="#02BE7B"/>
<stop offset="1" stop-color="#01ACDD"/>
</linearGradient>
<linearGradient id="paint1_linear_78_5373" x1="7.2752" y1="5.68913" x2="10.7728" y2="13.693" gradientUnits="userSpaceOnUse">
<stop stop-color="#F5ED01"/>
<stop offset="0.360577" stop-color="#1ACE30"/>
<stop offset="0.692308" stop-color="#02BE7B"/>
<stop offset="1" stop-color="#01ACDD"/>
</linearGradient>
</defs>
</svg>
