<svg width="20" height="20" viewBox="0 0 20 20" fill="none" xmlns="http://www.w3.org/2000/svg">
<path d="M7.25838 9.99832L5.08254 11.2525L3.06421 14.7483L11.2992 9.99832H7.25838Z" fill="#874691"/>
<path d="M13.4742 6.41666L11.2984 7.67082L9.28003 11.1667L17.5117 6.41666H13.4742Z" fill="#DA1844"/>
<path d="M11.2984 5.16249L9.28003 1.66666V18.3333L11.2984 14.8375V5.16249Z" fill="#F9B229"/>
<path d="M9.28003 1.66666L11.2984 5.16249L13.4742 6.41666H17.5117L9.28003 1.66666Z" fill="#F07F1A"/>
<path d="M9.28003 8.83334V18.3333L11.2984 14.8375V12.3258L9.28003 8.83334Z" fill="#72B22C"/>
<path d="M13.4742 13.5833L11.2984 14.8375L9.28003 18.3333L17.5117 13.5833H13.4742Z" fill="#00743E"/>
<path d="M3.06421 5.24833V14.7483L5.08254 11.2525V8.74333L3.06421 5.24833Z" fill="#5F5A94"/>
<path d="M9.28004 8.83332V8.83665L3.06421 5.24832L5.08254 8.74415L13.4742 13.5833H17.5117L9.28004 8.83332Z" fill="#0D90CD"/>
</svg>
