<svg width="20" height="20" viewBox="0 0 20 20" fill="none" xmlns="http://www.w3.org/2000/svg">
<mask id="mask0_78_5485" style="mask-type:alpha" maskUnits="userSpaceOnUse" x="0" y="0" width="20" height="20">
<rect width="20" height="20" fill="#D9D9D9"/>
</mask>
<g mask="url(#mask0_78_5485)">
<path d="M11.7646 3.22528C11.4597 2.92491 10.9653 2.92491 10.6604 3.22528C10.5141 3.36951 10.4317 3.56531 10.4317 3.76904V6.46153C5.76516 6.50913 2.00549 10.2473 2 14.8459V16.2305C2 16.5695 2.22544 16.8684 2.55482 16.9668C2.62801 16.9888 2.70414 17 2.78099 17C3.04193 17 3.28567 16.8713 3.4306 16.6574C6.41293 12.25 9.27303 11.9352 10.4321 12.0268V14.8462C10.4321 15.271 10.7816 15.6154 11.2127 15.6154C11.4198 15.6154 11.6182 15.5342 11.7646 15.39L17.386 9.85139C17.6908 9.55103 17.6908 9.06424 17.386 8.76387L11.7646 3.22528Z" fill="#1A1A1A"/>
</g>
</svg>
