<svg width="20" height="20" viewBox="0 0 20 20" fill="none" xmlns="http://www.w3.org/2000/svg">
<mask id="mask0_78_5365" style="mask-type:alpha" maskUnits="userSpaceOnUse" x="0" y="0" width="20" height="20">
<rect width="20" height="20" fill="#D9D9D9"/>
</mask>
<g mask="url(#mask0_78_5365)">
<path d="M1.99854 2.66693H17.9985V10.1621C17.9985 12.2249 16.8981 14.1312 15.1117 15.1627L9.99859 18.1152L4.88541 15.1627C3.09899 14.1312 1.99854 12.2249 1.99854 10.1621L1.99854 2.66693Z" fill="#FFDD2D"/>
<path fill-rule="evenodd" clip-rule="evenodd" d="M6.4126 6.52802V9.01502C6.75268 8.63097 7.37103 8.3711 8.07803 8.3711H8.84631V11.2622C8.84631 12.0314 8.63732 12.7845 8.32725 13.1548H11.6692C11.3598 12.7841 11.1513 12.0319 11.1513 11.2637V8.3711H11.9196C12.6266 8.3711 13.2449 8.63097 13.585 9.01502V6.52802H6.4126Z" fill="#333333"/>
</g>
</svg>
