<svg width="14" height="14" viewBox="0 0 14 14" fill="none" xmlns="http://www.w3.org/2000/svg">
<g clip-path="url(#clip0_78_5287)">
<path d="M13.0171 0.982917C12.0313 0 10.4475 0 7.29167 0H6.70833C3.5525 0 1.96875 0 0.982917 0.982917C-0.00291666 1.96583 1.0093e-07 3.5525 1.0093e-07 6.70833V7.29167C1.0093e-07 10.4475 6.95388e-08 12.0312 0.982917 13.0171C1.96583 14.0029 3.5525 14 6.70833 14H7.29167C10.4592 14 12.0429 14 13.0288 13.0171C14.0146 12.0342 14 10.4475 14 7.29167V6.70833C14 3.5525 14 1.96875 13.0171 0.982917ZM10.045 10.0858C9.89247 9.53937 9.58187 9.05015 9.1522 8.67964C8.72253 8.30913 8.19296 8.07384 7.63 8.00333V10.0858H7.44917C4.25833 10.0858 2.43833 7.89833 2.3625 4.2525H3.96083C4.01333 6.92417 5.19167 8.04417 6.125 8.28917V4.25833H7.63V6.5625C8.55167 6.46333 9.52 5.41333 9.84667 4.25833H11.3517C11.2307 4.85895 10.9869 5.42808 10.6356 5.93C10.2843 6.43192 9.83295 6.85579 9.31 7.175C9.89301 7.46417 10.4081 7.87362 10.8214 8.37636C11.2346 8.87909 11.5366 9.46371 11.7075 10.0917L10.045 10.0858Z" fill="#1A1A1A"/>
</g>
<defs>
<clipPath id="clip0_78_5287">
<rect width="14" height="14" fill="white"/>
</clipPath>
</defs>
</svg>
