<svg width="14" height="14" viewBox="0 0 14 14" fill="none" xmlns="http://www.w3.org/2000/svg">
<path d="M0 14C0.150471 13.4498 0.293637 12.9274 0.436219 12.4047C0.608311 11.7742 0.782448 11.144 0.94928 10.512C0.96559 10.444 0.95774 10.3724 0.927075 10.3095C0.25507 9.08939 -0.0371064 7.78102 0.0797641 6.39844C0.247181 4.41924 1.11728 2.79357 2.65384 1.53341C3.50844 0.829626 4.52515 0.350196 5.61183 0.138561C8.85849 -0.507149 11.9813 1.15417 13.3191 4.07535C13.8185 5.16721 14.0078 6.31547 13.9149 7.50725C13.6814 10.5047 11.4647 13.056 8.5295 13.7105C6.87491 14.0792 5.29219 13.8627 3.78134 13.0969C3.71394 13.0657 3.63806 13.0579 3.56572 13.0747C2.43587 13.3669 1.3072 13.6625 0.17852 13.9579C0.128265 13.9702 0.0777189 13.9813 0 14ZM1.67592 12.3428C1.74254 12.3267 1.79279 12.3153 1.84276 12.3022C2.45633 12.1418 3.0699 11.9846 3.68347 11.8174C3.80735 11.7838 3.90114 11.8028 4.00924 11.8668C5.34653 12.6592 6.77673 12.8938 8.29459 12.5523C11.5377 11.8218 13.5015 8.40336 12.5019 5.235C11.5912 2.34888 8.70948 0.677043 5.74506 1.31983C3.30013 1.8513 1.363 3.99237 1.24087 6.69354C1.19033 7.81024 1.43546 8.86792 2.01981 9.82334C2.20476 10.1257 2.23719 10.3785 2.1288 10.7075C1.95437 11.2386 1.82756 11.7859 1.67592 12.3428V12.3428Z" fill="#1A1A1A"/>
<path d="M3.4577 5.37818C3.46793 4.7985 3.69437 4.32167 4.1037 3.92402C4.16318 3.8629 4.23446 3.81452 4.31322 3.78183C4.39198 3.74913 4.47656 3.73279 4.56184 3.73381C4.65913 3.73381 4.7573 3.74842 4.85401 3.73878C5.05853 3.71862 5.1754 3.81913 5.24699 3.99297C5.43924 4.45344 5.63792 4.91157 5.81673 5.3773C5.84916 5.46174 5.83017 5.59673 5.78167 5.67532C5.65004 5.87877 5.50602 6.07392 5.35042 6.25967C5.25751 6.37479 5.24991 6.47705 5.325 6.60327C5.89094 7.55343 6.67777 8.24443 7.70944 8.65202C7.8491 8.70724 7.96305 8.68532 8.0586 8.56436C8.23039 8.34757 8.40921 8.13662 8.57692 7.91602C8.67333 7.78834 8.78611 7.74072 8.92928 7.80675C9.42598 8.04049 9.91917 8.27423 10.4092 8.51937C10.4606 8.54508 10.5082 8.63215 10.5102 8.69263C10.5301 9.20832 10.3802 9.64016 9.92063 9.9408C9.34855 10.3148 8.74784 10.3475 8.10914 10.1681C6.47091 9.70823 5.25429 8.68386 4.27755 7.33167C3.95615 6.88464 3.65989 6.42417 3.53484 5.87838C3.49569 5.71564 3.48225 5.5456 3.4577 5.37818Z" fill="#1A1A1A"/>
</svg>
