<svg width="12" height="12" viewBox="0 0 12 12" fill="none" xmlns="http://www.w3.org/2000/svg">
<path d="M11.8805 3.60002C11.8805 3.60002 11.7633 2.77268 11.4023 2.4094C10.9453 1.93127 10.4344 1.92893 10.2 1.9008C8.52188 1.77893 6.00234 1.77893 6.00234 1.77893H5.99766C5.99766 1.77893 3.47813 1.77893 1.8 1.9008C1.56563 1.92893 1.05469 1.93127 0.597656 2.4094C0.236719 2.77268 0.121875 3.60002 0.121875 3.60002C0.121875 3.60002 0 4.57268 0 5.54299V6.45236C0 7.42268 0.119531 8.39533 0.119531 8.39533C0.119531 8.39533 0.236719 9.22268 0.595312 9.58596C1.05234 10.0641 1.65234 10.0477 1.91953 10.0992C2.88047 10.1906 6 10.2188 6 10.2188C6 10.2188 8.52188 10.2141 10.2 10.0946C10.4344 10.0664 10.9453 10.0641 11.4023 9.58596C11.7633 9.22268 11.8805 8.39533 11.8805 8.39533C11.8805 8.39533 12 7.42502 12 6.45236V5.54299C12 4.57268 11.8805 3.60002 11.8805 3.60002ZM4.76016 7.55627V4.18361L8.00156 5.8758L4.76016 7.55627Z" fill="#1A1A1A"/>
</svg>
